<svg width="100" height="100" viewBox="0 0 100 100" fill="none" xmlns="http://www.w3.org/2000/svg">
<path d="M50 0C22.3828 0 0 22.3828 0 50C0 77.6172 22.3828 100 50 100C77.6172 100 100 77.6172 100 50C100 22.3828 77.6172 0 50 0ZM45.3125 29.6875C45.3125 27.1094 47.4219 25 50 25C52.5781 25 54.6875 27.0996 54.6875 29.6875V54.6875C54.6875 57.2754 52.5879 59.375 50 59.375C47.4121 59.375 45.3125 57.2852 45.3125 54.6875V29.6875ZM50 78.125C46.6094 78.125 43.8594 75.375 43.8594 71.9844C43.8594 68.5937 46.6074 65.8437 50 65.8437C53.3926 65.8437 56.1406 68.5937 56.1406 71.9844C56.1328 75.3711 53.3984 78.125 50 78.125Z" fill="#D03F2F"/>
</svg>
